<svg width="119" height="10" viewBox="0 0 119 10" fill="none" xmlns="http://www.w3.org/2000/svg">
<g clip-path="url(#clip0)">
<path d="M72.2956 6.94871V3.08124H73.3736V4.53388H78.6499V0H69.6785C67.833 0 67.1074 0.748783 67.1074 2.1565V7.83227C67.1074 9.25871 67.8498 9.98503 69.6952 9.98503H78.6666V5.45489H73.3736V6.95245L72.2956 6.94871Z" fill="#4D4D4D"/>
<path d="M65.249 0V4.54137H62.074V9.99251H56.827V4.54137H53.6855V0H65.249Z" fill="#4D4D4D"/>
<path d="M5.23856 9.98503H0V0H5.23856V2.51966H6.32066V0H11.5592V9.98503H6.32066V7.46537H5.23856V9.98503Z" fill="#4D4D4D"/>
<path d="M24.9937 3.80382V6.18121H19.7425V7.11344H24.9937V9.99626H16.0139C14.1684 9.99626 13.4219 9.24747 13.4219 7.83976V0H24.9937V2.88282H19.7425V3.80382H24.9937Z" fill="#4D4D4D"/>
<path d="M35.8184 0C37.6638 0 38.4104 0.748783 38.4104 2.1565V9.98503H33.1718V7.57769H32.0897V9.98503H26.8428V2.1565C26.8428 0.748783 27.5977 0 29.4432 0H35.8184ZM33.1718 2.66192H32.0897V4.13703H33.1718V2.66192Z" fill="#4D4D4D"/>
<path d="M51.8197 9.99251H46.5811V7.58517H45.499V9.99251H40.2646V0H49.2151C51.0605 0 51.8239 0.748783 51.8239 2.1565V4.53388H49.5464V5.45114C50.8634 5.45114 51.8239 6.17746 51.8239 7.26694L51.8197 9.99251ZM46.5811 2.66941H45.499V4.14451H46.5811V2.66941Z" fill="#4D4D4D"/>
<path d="M105.476 9.98503H100.242V7.57769H99.1598V9.98503H93.917V0H102.867C104.713 0 105.476 0.72632 105.476 2.15275V4.53014H103.199V5.45114C104.516 5.45114 105.476 6.10633 105.476 7.2632V9.98503ZM100.242 2.66567H99.1598V4.13703H100.242V2.66567Z" fill="#4D4D4D"/>
<path d="M83.0832 10C81.2378 10 80.4912 9.26994 80.4912 7.8435V2.17147C80.4912 0.748783 81.2378 0 83.0832 0H89.4584C91.3038 0 92.0504 0.748783 92.0504 2.1565V7.86222C92.0504 9.28866 91.3248 10.0187 89.4794 10.0187L83.0832 10ZM86.8202 3.77012H85.7298V6.25983H86.8202V3.77012Z" fill="#4D4D4D"/>
<path d="M118.888 3.80382V6.18121H113.662V7.11344H118.901V10H109.921C108.076 10 107.329 9.25122 107.329 7.8435V0H118.888V2.88282H113.662V3.80382H118.888Z" fill="#4D4D4D"/>
</g>
<defs>
<clipPath id="clip0">
<rect width="118.889" height="10" fill="white"/>
</clipPath>
</defs>
</svg>
